<?xml version="1.0" encoding="UTF-8" standalone="no"?>
<svg width="16px" height="16px" viewBox="0 0 16 16" version="1.1" xmlns="http://www.w3.org/2000/svg" xmlns:xlink="http://www.w3.org/1999/xlink">
    <!-- Generator: Sketch 3.6.1 (26313) - http://www.bohemiancoding.com/sketch -->
    <title>Rectangle 407 Copy 2@2x</title>
    <desc>Created with Sketch.</desc>
    <defs></defs>
    <g id="Desktop" stroke="none" stroke-width="1" fill="none" fill-rule="evenodd">
        <g id="Desktop-HD-Copy-4" transform="translate(-593.000000, -51.000000)" fill="#F6F6F5">
            <path d="M599.5,57.5 L592.503251,57.5 C591.665436,57.5 591,58.1715729 591,59 C591,59.8342028 591.673028,60.5 592.503251,60.5 L599.5,60.5 L599.5,67.4967494 C599.5,68.3345642 600.171573,69 601,69 C601.834203,69 602.5,68.3269718 602.5,67.4967494 L602.5,60.5 L609.496749,60.5 C610.334564,60.5 611,59.8284271 611,59 C611,58.1657972 610.326972,57.5 609.496749,57.5 L602.5,57.5 L602.5,50.5032506 C602.5,49.6654358 601.828427,49 601,49 C600.165797,49 599.5,49.6730282 599.5,50.5032506 L599.5,57.5 Z" id="Rectangle-407-Copy-2" transform="translate(601.000000, 59.000000) rotate(-315.000000) translate(-601.000000, -59.000000) "></path>
        </g>
    </g>
</svg>